<svg xmlns="http://www.w3.org/2000/svg" xmlns:xlink="http://www.w3.org/1999/xlink" version="1.1" width="256" height="256" viewBox="0 0 256 256" xml:space="preserve">

<defs>
</defs>
<g style="stroke: none; stroke-width: 0; stroke-dasharray: none; stroke-linecap: butt; stroke-linejoin: miter; stroke-miterlimit: 10; fill: none; fill-rule: nonzero; opacity: 1;" transform="translate(1.4065934065934016 1.4065934065934016) scale(2.81 2.81)" >
	<path d="M 16.253 90 c -1.72 0 -3.46 -0.275 -5.16 -0.839 c -0.329 -0.109 -0.578 -0.381 -0.658 -0.719 c -0.08 -0.338 0.021 -0.692 0.266 -0.937 l 7.189 -7.189 c 1.096 -1.096 1.7 -2.553 1.7 -4.104 s -0.603 -3.007 -1.699 -4.104 c -2.264 -2.263 -5.946 -2.263 -8.207 0 l -7.189 7.189 c -0.245 0.244 -0.602 0.347 -0.937 0.266 c -0.337 -0.079 -0.609 -0.329 -0.719 -0.658 c -1.945 -5.866 -0.449 -12.215 3.906 -16.57 c 4.463 -4.462 11.051 -5.916 16.948 -3.792 l 36.851 -36.851 c -2.124 -5.9 -0.671 -12.486 3.792 -16.948 c 4.354 -4.355 10.707 -5.852 16.57 -3.906 c 0.329 0.109 0.579 0.381 0.658 0.719 c 0.08 0.337 -0.021 0.692 -0.266 0.937 L 72.11 9.683 c -2.262 2.263 -2.262 5.944 0 8.207 c 1.096 1.096 2.553 1.699 4.104 1.699 c 1.55 0 3.007 -0.603 4.104 -1.7 l 7.189 -7.189 c 0.245 -0.246 0.603 -0.344 0.937 -0.266 c 0.338 0.08 0.609 0.329 0.719 0.658 c 1.946 5.866 0.449 12.215 -3.906 16.57 c -4.463 4.464 -11.048 5.915 -16.948 3.793 L 31.456 68.307 c 2.124 5.899 0.67 12.485 -3.793 16.948 C 24.571 88.348 20.471 90 16.253 90 z M 13.336 87.698 c 4.668 0.974 9.493 -0.436 12.913 -3.857 c 4.051 -4.051 5.274 -10.098 3.115 -15.406 c -0.151 -0.373 -0.065 -0.8 0.219 -1.084 l 37.769 -37.769 c 0.285 -0.285 0.712 -0.371 1.084 -0.219 c 5.307 2.161 11.355 0.936 15.406 -3.115 c 3.42 -3.421 4.829 -8.246 3.857 -12.913 l -5.967 5.967 c -1.473 1.474 -3.433 2.286 -5.517 2.286 c -2.084 0 -4.044 -0.811 -5.517 -2.285 c -3.042 -3.043 -3.042 -7.993 0 -11.035 l 5.967 -5.968 C 71.993 1.33 67.17 2.738 63.749 6.158 c -4.051 4.051 -5.273 10.098 -3.114 15.406 c 0.151 0.372 0.064 0.8 -0.22 1.084 L 22.648 60.416 c -0.285 0.284 -0.712 0.367 -1.084 0.22 c -5.308 -2.162 -11.355 -0.937 -15.406 3.114 c -3.421 3.421 -4.829 8.246 -3.857 12.914 l 5.968 -5.967 c 3.042 -3.042 7.992 -3.042 11.035 0 c 1.474 1.473 2.286 3.433 2.285 5.517 c 0 2.084 -0.812 4.044 -2.286 5.517 L 13.336 87.698 z" style="stroke: none; stroke-width: 1; stroke-dasharray: none; stroke-linecap: butt; stroke-linejoin: miter; stroke-miterlimit: 10; fill: rgb(255,219,110); fill-rule: nonzero; opacity: 1;" transform=" matrix(1 0 0 1 0 0) " stroke-linecap="round" />
	<path d="M 29.621 61.379 c -0.256 0 -0.512 -0.098 -0.707 -0.293 c -0.391 -0.391 -0.391 -1.023 0 -1.414 l 30.758 -30.758 c 0.391 -0.391 1.023 -0.391 1.414 0 c 0.391 0.391 0.391 1.023 0 1.414 L 30.327 61.086 C 30.132 61.281 29.876 61.379 29.621 61.379 z" style="stroke: none; stroke-width: 1; stroke-dasharray: none; stroke-linecap: butt; stroke-linejoin: miter; stroke-miterlimit: 10; fill: rgb(255,219,110); fill-rule: nonzero; opacity: 1;" transform=" matrix(1 0 0 1 0 0) " stroke-linecap="round" />
	<path d="M 79.625 89.833 c -2.654 0 -5.308 -1.01 -7.328 -3.031 L 57.424 71.93 c -0.177 -0.177 -0.28 -0.413 -0.292 -0.662 c -0.155 -3.46 -1.876 -7.076 -4.72 -9.921 c -2.794 -2.793 -6.352 -4.511 -9.76 -4.712 c -0.552 -0.032 -0.972 -0.506 -0.939 -1.056 c 0.032 -0.552 0.505 -0.967 1.056 -0.939 c 3.891 0.228 7.921 2.159 11.057 5.294 c 3.087 3.088 4.996 7.021 5.28 10.851 L 73.71 85.389 c 3.262 3.262 8.57 3.26 11.83 0 c 3.261 -3.262 3.261 -8.568 0 -11.83 L 70.936 58.955 c -3.831 -0.284 -7.764 -2.193 -10.851 -5.28 c -3.135 -3.136 -5.065 -7.166 -5.294 -11.057 c -0.032 -0.551 0.388 -1.024 0.939 -1.056 c 0.539 -0.041 1.024 0.388 1.056 0.939 c 0.201 3.408 1.918 6.966 4.712 9.76 c 2.844 2.844 6.459 4.564 9.921 4.72 c 0.249 0.012 0.485 0.115 0.662 0.292 l 14.873 14.873 c 4.04 4.041 4.04 10.617 0 14.658 C 84.934 88.824 82.279 89.833 79.625 89.833 z" style="stroke: none; stroke-width: 1; stroke-dasharray: none; stroke-linecap: butt; stroke-linejoin: miter; stroke-miterlimit: 10; fill: rgb(255,219,110); fill-rule: nonzero; opacity: 1;" transform=" matrix(1 0 0 1 0 0) " stroke-linecap="round" />
	<path d="M 81.007 81.856 c -0.256 0 -0.512 -0.098 -0.707 -0.293 L 52.382 53.645 c -0.391 -0.391 -0.391 -1.023 0 -1.414 s 1.023 -0.391 1.414 0 l 27.918 27.917 c 0.391 0.391 0.391 1.023 0 1.414 C 81.519 81.758 81.263 81.856 81.007 81.856 z" style="stroke: none; stroke-width: 1; stroke-dasharray: none; stroke-linecap: butt; stroke-linejoin: miter; stroke-miterlimit: 10; fill: rgb(255,219,110); fill-rule: nonzero; opacity: 1;" transform=" matrix(1 0 0 1 0 0) " stroke-linecap="round" />
	<path d="M 39.138 43.512 c -0.256 0 -0.512 -0.098 -0.707 -0.293 l -26.69 -26.69 l -5.818 -1.89 c -0.239 -0.078 -0.44 -0.243 -0.563 -0.462 L 0.138 4.874 c -0.219 -0.391 -0.152 -0.879 0.165 -1.196 l 3.224 -3.223 C 3.843 0.139 4.333 0.071 4.723 0.29 l 9.303 5.221 c 0.219 0.123 0.384 0.324 0.462 0.563 l 1.89 5.818 l 26.69 26.69 c 0.391 0.391 0.391 1.023 0 1.414 c -0.391 0.391 -1.023 0.391 -1.414 0 l -26.859 -26.86 c -0.112 -0.111 -0.195 -0.248 -0.244 -0.398 l -1.843 -5.675 l -8.302 -4.66 L 2.252 4.556 l 4.66 8.302 l 5.675 1.843 c 0.15 0.049 0.287 0.132 0.398 0.244 l 26.86 26.86 c 0.391 0.391 0.391 1.023 0 1.414 C 39.65 43.415 39.394 43.512 39.138 43.512 z" style="stroke: none; stroke-width: 1; stroke-dasharray: none; stroke-linecap: butt; stroke-linejoin: miter; stroke-miterlimit: 10; fill: rgb(255,219,110); fill-rule: nonzero; opacity: 1;" transform=" matrix(1 0 0 1 0 0) " stroke-linecap="round" />
</g>
</svg>