<svg xmlns="http://www.w3.org/2000/svg" viewBox="0 0 64 64"><title>Artboard-13</title><g id="Laptop"><path d="M55,46V14a1,1,0,0,0-1-1H35a1,1,0,0,0-1,1,2,2,0,0,1-4,0,1,1,0,0,0-1-1H10a1,1,0,0,0-1,1V46a1,1,0,0,0,1,1H54A1,1,0,0,0,55,46Zm-2-1H11V15H28.1265a4,4,0,0,0,7.7465,0H53Z" style="fill:#ffdb6e"/><path d="M63,49H59V14a5.0059,5.0059,0,0,0-5-5H10a5.0059,5.0059,0,0,0-5,5V49H1a1,1,0,0,0-1,1v4a5.0059,5.0059,0,0,0,5,5H59a5.0059,5.0059,0,0,0,5-5V50A1,1,0,0,0,63,49ZM7,14a3.0033,3.0033,0,0,1,3-3H54a3.0033,3.0033,0,0,1,3,3V49H7Zm7,37H50v1a1.0009,1.0009,0,0,1-1,1H15a1.0013,1.0013,0,0,1-1-1Zm48,3a3.0033,3.0033,0,0,1-3,3H5a3.0033,3.0033,0,0,1-3-3V51H12v1a3.0033,3.0033,0,0,0,3,3H49a3.0033,3.0033,0,0,0,3-3V51H62Z" style="fill:#ffdb6e"/><circle cx="32" cy="14" r="1" style="fill:#ffdb6e"/><path d="M32,20a5.0059,5.0059,0,0,0-5,5v2H26a3.0033,3.0033,0,0,0-3,3V40a3.0033,3.0033,0,0,0,3,3H38a3.0033,3.0033,0,0,0,3-3V30a3.0033,3.0033,0,0,0-3-3H37V25A5.0059,5.0059,0,0,0,32,20Zm-3,5a3,3,0,0,1,6,0v2H29Zm10,5V40a1.0009,1.0009,0,0,1-1,1H26a1.0013,1.0013,0,0,1-1-1V30a1.0013,1.0013,0,0,1,1-1H38A1.0009,1.0009,0,0,1,39,30Z" style="fill:#ffdb6e"/><path d="M32,31a2.9926,2.9926,0,0,0-1,5.8157V38a1,1,0,0,0,2,0V36.8157A2.9926,2.9926,0,0,0,32,31Zm0,4a1,1,0,1,1,1-1A1.0013,1.0013,0,0,1,32,35Z" style="fill:#ffdb6e"/></g></svg>