<svg xmlns:xlink="http://www.w3.org/1999/xlink" xmlns="http://www.w3.org/2000/svg" viewBox="0 0 256 256" width="288" height="288"><path fill="#A4A4A4" stroke-miterlimit="10" d="M36,9c-2.209,0 -4,1.791 -4,4v23.35938l-3.16406,-3.17969c-1.559,-1.568 -4.09125,-1.57562 -5.65625,-0.01563c-1.567,1.557 -1.57362,4.09125 -0.01563,5.65625l10,10.05078c0.751,0.755 1.77194,1.17969 2.83594,1.17969c1.064,0 2.08494,-0.42469 2.83594,-1.17969l10,-10.05078c1.557,-1.565 1.55038,-4.09825 -0.01563,-5.65625c-1.564,-1.559 -4.09525,-1.54837 -5.65625,0.01563l-3.16406,3.17969v-23.35937c0,-2.209 -1.791,-4 -4,-4zM12,41c-2.209,0 -4,1.791 -4,4v7c0,4.963 4.037,9 9,9h38c4.963,0 9,-4.037 9,-9v-7c0,-2.209 -1.791,-4 -4,-4c-2.209,0 -4,1.791 -4,4v7c0,0.552 -0.448,1 -1,1h-38c-0.552,0 -1,-0.448 -1,-1v-7c0,-2.209 -1.791,-4 -4,-4z" font-family="none" font-size="none" font-weight="none" text-anchor="none" transform="scale(3.55556)" class="colorFFD169 svgShape"></path></svg>