<svg xmlns="http://www.w3.org/2000/svg" xmlns:xlink="http://www.w3.org/1999/xlink" version="1.1" width="256" height="256" viewBox="0 0 256 256" xml:space="preserve">

<defs>
</defs>
<g style="stroke: none; stroke-width: 0; stroke-dasharray: none; stroke-linecap: butt; stroke-linejoin: miter; stroke-miterlimit: 10; fill: none; fill-rule: nonzero; opacity: 1;" transform="translate(1.4065934065934016 1.4065934065934016) scale(2.81 2.81)" >
	<path d="M 84.527 33.551 H 5.473 C 2.455 33.551 0 31.096 0 28.079 V 12.126 c 0 -3.018 2.455 -5.473 5.473 -5.473 h 79.055 c 3.018 0 5.473 2.455 5.473 5.473 v 15.952 C 90 31.096 87.545 33.551 84.527 33.551 z M 5.473 8.654 C 3.558 8.654 2 10.211 2 12.126 v 15.952 c 0 1.915 1.558 3.473 3.473 3.473 h 79.055 c 1.915 0 3.473 -1.558 3.473 -3.473 V 12.126 c 0 -1.915 -1.558 -3.473 -3.473 -3.473 H 5.473 z" style="stroke: none; stroke-width: 1; stroke-dasharray: none; stroke-linecap: butt; stroke-linejoin: miter; stroke-miterlimit: 10; fill: rgb(255,219,110); fill-rule: nonzero; opacity: 1;" transform=" matrix(1 0 0 1 0 0) " stroke-linecap="round" />
	<path d="M 79.646 16.947 H 43.957 c -0.552 0 -1 -0.448 -1 -1 s 0.448 -1 1 -1 h 35.689 c 0.553 0 1 0.448 1 1 S 80.199 16.947 79.646 16.947 z" style="stroke: none; stroke-width: 1; stroke-dasharray: none; stroke-linecap: butt; stroke-linejoin: miter; stroke-miterlimit: 10; fill: rgb(255,219,110); fill-rule: nonzero; opacity: 1;" transform=" matrix(1 0 0 1 0 0) " stroke-linecap="round" />
	<path d="M 15.8 26.549 c -3.555 0 -6.446 -2.892 -6.446 -6.446 s 2.892 -6.447 6.446 -6.447 s 6.447 2.892 6.447 6.447 S 19.355 26.549 15.8 26.549 z M 15.8 15.656 c -2.452 0 -4.446 1.995 -4.446 4.447 c 0 2.452 1.995 4.446 4.446 4.446 c 2.452 0 4.447 -1.995 4.447 -4.446 C 20.247 17.65 18.252 15.656 15.8 15.656 z" style="stroke: none; stroke-width: 1; stroke-dasharray: none; stroke-linecap: butt; stroke-linejoin: miter; stroke-miterlimit: 10; fill: rgb(255,219,110); fill-rule: nonzero; opacity: 1;" transform=" matrix(1 0 0 1 0 0) " stroke-linecap="round" />
	<path d="M 79.646 25.258 H 43.957 c -0.552 0 -1 -0.448 -1 -1 s 0.448 -1 1 -1 h 35.689 c 0.553 0 1 0.448 1 1 S 80.199 25.258 79.646 25.258 z" style="stroke: none; stroke-width: 1; stroke-dasharray: none; stroke-linecap: butt; stroke-linejoin: miter; stroke-miterlimit: 10; fill: rgb(255,219,110); fill-rule: nonzero; opacity: 1;" transform=" matrix(1 0 0 1 0 0) " stroke-linecap="round" />
	<path d="M 38.687 58.449 H 5.473 C 2.455 58.449 0 55.994 0 52.976 V 37.024 c 0 -3.018 2.455 -5.473 5.473 -5.473 c 0.552 0 1 0.448 1 1 s -0.448 1 -1 1 C 3.558 33.551 2 35.109 2 37.024 v 15.952 c 0 1.915 1.558 3.474 3.473 3.474 h 33.214 c 0.552 0 1 0.447 1 1 S 39.239 58.449 38.687 58.449 z" style="stroke: none; stroke-width: 1; stroke-dasharray: none; stroke-linecap: butt; stroke-linejoin: miter; stroke-miterlimit: 10; fill: rgb(255,219,110); fill-rule: nonzero; opacity: 1;" transform=" matrix(1 0 0 1 0 0) " stroke-linecap="round" />
	<path d="M 89 53.976 c -0.553 0 -1 -0.447 -1 -1 V 37.024 c 0 -1.915 -1.558 -3.473 -3.473 -3.473 c -0.553 0 -1 -0.448 -1 -1 s 0.447 -1 1 -1 c 3.018 0 5.473 2.455 5.473 5.473 v 15.952 C 90 53.528 89.553 53.976 89 53.976 z" style="stroke: none; stroke-width: 1; stroke-dasharray: none; stroke-linecap: butt; stroke-linejoin: miter; stroke-miterlimit: 10; fill: rgb(255,219,110); fill-rule: nonzero; opacity: 1;" transform=" matrix(1 0 0 1 0 0) " stroke-linecap="round" />
	<path d="M 79.646 41.845 H 43.957 c -0.552 0 -1 -0.448 -1 -1 s 0.448 -1 1 -1 h 35.689 c 0.553 0 1 0.448 1 1 S 80.199 41.845 79.646 41.845 z" style="stroke: none; stroke-width: 1; stroke-dasharray: none; stroke-linecap: butt; stroke-linejoin: miter; stroke-miterlimit: 10; fill: rgb(255,219,110); fill-rule: nonzero; opacity: 1;" transform=" matrix(1 0 0 1 0 0) " stroke-linecap="round" />
	<path d="M 15.8 51.446 c -3.555 0 -6.446 -2.892 -6.446 -6.446 s 2.892 -6.447 6.446 -6.447 s 6.447 2.892 6.447 6.447 S 19.355 51.446 15.8 51.446 z M 15.8 40.553 c -2.452 0 -4.446 1.995 -4.446 4.447 s 1.995 4.446 4.446 4.446 c 2.452 0 4.447 -1.994 4.447 -4.446 S 18.252 40.553 15.8 40.553 z" style="stroke: none; stroke-width: 1; stroke-dasharray: none; stroke-linecap: butt; stroke-linejoin: miter; stroke-miterlimit: 10; fill: rgb(255,219,110); fill-rule: nonzero; opacity: 1;" transform=" matrix(1 0 0 1 0 0) " stroke-linecap="round" />
	<path d="M 34.592 83.347 H 5.473 C 2.455 83.347 0 80.892 0 77.873 V 61.922 c 0 -3.018 2.455 -5.473 5.473 -5.473 c 0.552 0 1 0.447 1 1 s -0.448 1 -1 1 C 3.558 58.449 2 60.007 2 61.922 v 15.951 c 0 1.915 1.558 3.474 3.473 3.474 h 29.12 c 0.552 0 1 0.447 1 1 S 35.145 83.347 34.592 83.347 z" style="stroke: none; stroke-width: 1; stroke-dasharray: none; stroke-linecap: butt; stroke-linejoin: miter; stroke-miterlimit: 10; fill: rgb(255,219,110); fill-rule: nonzero; opacity: 1;" transform=" matrix(1 0 0 1 0 0) " stroke-linecap="round" />
	<path d="M 15.8 76.344 c -3.555 0 -6.446 -2.892 -6.446 -6.446 s 2.892 -6.446 6.446 -6.446 s 6.447 2.892 6.447 6.446 S 19.355 76.344 15.8 76.344 z M 15.8 65.451 c -2.452 0 -4.446 1.994 -4.446 4.446 s 1.995 4.446 4.446 4.446 c 2.452 0 4.447 -1.994 4.447 -4.446 S 18.252 65.451 15.8 65.451 z" style="stroke: none; stroke-width: 1; stroke-dasharray: none; stroke-linecap: butt; stroke-linejoin: miter; stroke-miterlimit: 10; fill: rgb(255,219,110); fill-rule: nonzero; opacity: 1;" transform=" matrix(1 0 0 1 0 0) " stroke-linecap="round" />
	<path d="M 76.41 83.266 H 47.635 c -5.485 0 -9.948 -4.463 -9.948 -9.948 c 0 -4.719 3.321 -8.75 7.857 -9.721 c 0.317 -8.533 7.358 -15.378 15.967 -15.378 c 5.676 0 10.896 2.999 13.768 7.866 h 1.131 c 7.493 0 13.59 6.097 13.59 13.59 C 90 77.169 83.903 83.266 76.41 83.266 z M 61.512 50.219 c -7.708 0 -13.979 6.271 -13.979 13.979 l 0.013 0.221 c 0.012 0.514 -0.368 0.954 -0.879 1.016 c -3.979 0.485 -6.98 3.874 -6.98 7.883 c 0 4.383 3.565 7.948 7.948 7.948 H 76.41 c 6.391 0 11.59 -5.199 11.59 -11.591 c 0 -6.391 -5.199 -11.59 -11.59 -11.59 h -1.714 c -0.367 0 -0.705 -0.201 -0.88 -0.524 C 71.368 53.032 66.653 50.219 61.512 50.219 z" style="stroke: none; stroke-width: 1; stroke-dasharray: none; stroke-linecap: butt; stroke-linejoin: miter; stroke-miterlimit: 10; fill: rgb(255,219,110); fill-rule: nonzero; opacity: 1;" transform=" matrix(1 0 0 1 0 0) " stroke-linecap="round" />
</g>
</svg>