<svg xmlns="http://www.w3.org/2000/svg" xmlns:xlink="http://www.w3.org/1999/xlink" version="1.1" width="256" height="256" viewBox="0 0 256 256" xml:space="preserve">

<defs>
</defs>
<g style="stroke: none; stroke-width: 0; stroke-dasharray: none; stroke-linecap: butt; stroke-linejoin: miter; stroke-miterlimit: 10; fill: none; fill-rule: nonzero; opacity: 1;" transform="translate(1.4065934065934016 1.4065934065934016) scale(2.81 2.81)" >
	<polygon points="88,67.16 73.16,73.16 67.16,88 54.79,54.79 " style="stroke: none; stroke-width: 1; stroke-dasharray: none; stroke-linecap: butt; stroke-linejoin: miter; stroke-miterlimit: 10; fill: rgb(214,214,214); fill-rule: nonzero; opacity: 1;" transform="  matrix(1 0 0 1 0 0) "/>
	<path d="M 67.159 90 c -0.009 0 -0.019 0 -0.028 0 c -0.824 -0.012 -1.558 -0.528 -1.846 -1.302 L 52.919 55.491 c -0.273 -0.733 -0.094 -1.559 0.46 -2.112 c 0.553 -0.555 1.379 -0.735 2.112 -0.46 l 33.207 12.366 c 0.773 0.288 1.29 1.021 1.302 1.846 c 0.012 0.825 -0.485 1.573 -1.25 1.883 l -14.053 5.684 L 69.014 88.75 C 68.707 89.506 67.974 90 67.159 90 z M 58.193 58.193 l 9.043 24.282 l 4.07 -10.064 c 0.204 -0.502 0.603 -0.9 1.104 -1.104 l 10.064 -4.07 L 58.193 58.193 z" style="stroke: none; stroke-width: 1; stroke-dasharray: none; stroke-linecap: butt; stroke-linejoin: miter; stroke-miterlimit: 10; fill: rgb(214,214,214); fill-rule: nonzero; opacity: 1;" transform=" matrix(1 0 0 1 0 0) " stroke-linecap="round" />
	<path d="M 45 90 C 20.187 90 0 69.813 0 45 C 0 20.187 20.187 0 45 0 c 24.813 0 45 20.187 45 45 c 0 7.399 -1.835 14.735 -5.306 21.216 l -3.525 -1.889 C 84.329 58.426 86 51.742 86 45 C 86 22.393 67.607 4 45 4 S 4 22.393 4 45 s 18.393 41 41 41 c 6.742 0 13.426 -1.671 19.327 -4.831 l 1.889 3.525 C 59.735 88.165 52.399 90 45 90 z" style="stroke: none; stroke-width: 1; stroke-dasharray: none; stroke-linecap: butt; stroke-linejoin: miter; stroke-miterlimit: 10; fill: rgb(214,214,214); fill-rule: nonzero; opacity: 1;" transform=" matrix(1 0 0 1 0 0) " stroke-linecap="round" />
	<path d="M 45 90 c -11.003 0 -19.622 -19.767 -19.622 -45 c 0 -25.234 8.619 -45 19.622 -45 s 19.621 19.766 19.621 45 c 0 4.318 -0.257 8.582 -0.762 12.675 l -3.971 -0.49 c 0.486 -3.931 0.732 -8.03 0.732 -12.185 c 0 -24.525 -8.077 -41 -15.621 -41 S 29.378 20.475 29.378 45 S 37.456 86 45 86 c 4.974 0 9.91 -6.984 12.884 -18.228 l 3.867 1.023 C 58.187 82.271 52.081 90 45 90 z" style="stroke: none; stroke-width: 1; stroke-dasharray: none; stroke-linecap: butt; stroke-linejoin: miter; stroke-miterlimit: 10; fill: rgb(214,214,214); fill-rule: nonzero; opacity: 1;" transform=" matrix(1 0 0 1 0 0) " stroke-linecap="round" />
	<rect x="2" y="43" rx="0" ry="0" width="86" height="4" style="stroke: none; stroke-width: 1; stroke-dasharray: none; stroke-linecap: butt; stroke-linejoin: miter; stroke-miterlimit: 10; fill: rgb(214,214,214); fill-rule: nonzero; opacity: 1;" transform=" matrix(1 0 0 1 0 0) "/>
</g>
</svg>